<svg width="60" height="60" viewBox="0 0 60 60" fill="none" xmlns="http://www.w3.org/2000/svg">
<path opacity="0.9" d="M44.6025 39.1475L45.0425 39.59L45.4863 39.1475C47.683 36.9508 51.2445 36.9508 53.4413 39.1475C55.638 41.3442 55.638 44.9058 53.4413 47.1025L45.0445 55.4992L36.6475 47.1025C34.4508 44.9058 34.4508 41.3442 36.6475 39.1475C38.8443 36.9508 42.4058 36.9508 44.6025 39.1475ZM30 35V40C21.7157 40 15 46.7158 15 55H10C10 44.1628 18.6196 35.3388 29.377 35.0095L30 35ZM30 2.5C38.2875 2.5 45 9.2125 45 17.5C45 25.5993 38.5893 32.194 30.5625 32.4897L30 32.5C21.7125 32.5 15 25.7875 15 17.5C15 9.40085 21.4109 2.80593 29.4375 2.51035L30 2.5ZM30 7.5C24.4739 7.5 20 11.9739 20 17.5C20 23.0261 24.4739 27.5 30 27.5C35.526 27.5 40 23.0261 40 17.5C40 11.9739 35.526 7.5 30 7.5Z" fill="#50C0FA"/>
</svg>
