<svg width="64" height="64" viewBox="0 0 64 64" fill="none" xmlns="http://www.w3.org/2000/svg">
<path d="M38.6667 31.3333C37.7333 31.3333 36.9444 31.0111 36.3 30.3667C35.6556 29.7222 35.3333 28.9333 35.3333 28C35.3333 27.0667 35.6556 26.2778 36.3 25.6333C36.9444 24.9889 37.7333 24.6667 38.6667 24.6667C39.6 24.6667 40.3889 24.9889 41.0333 25.6333C41.6778 26.2778 42 27.0667 42 28C42 28.9333 41.6778 29.7222 41.0333 30.3667C40.3889 31.0111 39.6 31.3333 38.6667 31.3333ZM25.3333 31.3333C24.4 31.3333 23.6111 31.0111 22.9667 30.3667C22.3222 29.7222 22 28.9333 22 28C22 27.0667 22.3222 26.2778 22.9667 25.6333C23.6111 24.9889 24.4 24.6667 25.3333 24.6667C26.2667 24.6667 27.0556 24.9889 27.7 25.6333C28.3444 26.2778 28.6667 27.0667 28.6667 28C28.6667 28.9333 28.3444 29.7222 27.7 30.3667C27.0556 31.0111 26.2667 31.3333 25.3333 31.3333ZM32 45.3333C29.3333 45.3333 26.9222 44.6 24.7667 43.1333C22.6111 41.6667 21.0222 39.7333 20 37.3333H44C42.9778 39.7333 41.3889 41.6667 39.2333 43.1333C37.0778 44.6 34.6667 45.3333 32 45.3333ZM32 56C28.6667 56 25.5444 55.3667 22.6333 54.1C19.7222 52.8333 17.1889 51.1222 15.0333 48.9667C12.8778 46.8111 11.1667 44.2778 9.9 41.3667C8.63333 38.4556 8 35.3333 8 32C8 28.6667 8.63333 25.5444 9.9 22.6333C11.1667 19.7222 12.8778 17.1889 15.0333 15.0333C17.1889 12.8778 19.7222 11.1667 22.6333 9.9C25.5444 8.63333 28.6667 8 32 8C35.3333 8 38.4556 8.63333 41.3667 9.9C44.2778 11.1667 46.8111 12.8778 48.9667 15.0333C51.1222 17.1889 52.8333 19.7222 54.1 22.6333C55.3667 25.5444 56 28.6667 56 32C56 35.3333 55.3667 38.4556 54.1 41.3667C52.8333 44.2778 51.1222 46.8111 48.9667 48.9667C46.8111 51.1222 44.2778 52.8333 41.3667 54.1C38.4556 55.3667 35.3333 56 32 56ZM32 50.6667C37.1556 50.6667 41.5556 48.8444 45.2 45.2C48.8444 41.5556 50.6667 37.1556 50.6667 32C50.6667 26.8444 48.8444 22.4444 45.2 18.8C41.5556 15.1556 37.1556 13.3333 32 13.3333H31.2C30.9333 13.3333 30.6667 13.3778 30.4 13.4667C30.1333 13.7333 29.9556 14.0222 29.8667 14.3333C29.7778 14.6444 29.7333 14.9778 29.7333 15.3333C29.7333 16.2667 30.0556 17.0556 30.7 17.7C31.3444 18.3444 32.1333 18.6667 33.0667 18.6667C33.4667 18.6667 33.8333 18.6 34.1667 18.4667C34.5 18.3333 34.8444 18.2667 35.2 18.2667C35.7333 18.2667 36.1778 18.4667 36.5333 18.8667C36.8889 19.2667 37.0667 19.7333 37.0667 20.2667C37.0667 21.2889 36.5889 21.9444 35.6333 22.2333C34.6778 22.5222 33.8222 22.6667 33.0667 22.6667C31.0667 22.6667 29.3444 21.9444 27.9 20.5C26.4556 19.0556 25.7333 17.3333 25.7333 15.3333V14.9333C25.7333 14.8 25.7556 14.6222 25.8 14.4C22.1111 15.7333 19.1111 17.9778 16.8 21.1333C14.4889 24.2889 13.3333 27.9111 13.3333 32C13.3333 37.1556 15.1556 41.5556 18.8 45.2C22.4444 48.8444 26.8444 50.6667 32 50.6667Z" fill="#2EB6FF"/>
</svg>
