<svg width="64" height="64" viewBox="0 0 64 64" fill="none" xmlns="http://www.w3.org/2000/svg">
<path d="M5.33398 34.6666L10.934 18.6666C11.2007 17.8666 11.6784 17.2221 12.3673 16.7333C13.0562 16.2444 13.8229 15.9999 14.6673 15.9999H26.8673C26.734 16.8888 26.6673 17.7777 26.6673 18.6666C26.6673 19.5555 26.734 20.4444 26.8673 21.3333H15.6007L12.8007 29.3333H30.0673C30.8229 30.3999 31.6673 31.3888 32.6006 32.2999C33.534 33.211 34.5784 33.9999 35.734 34.6666H10.6673V47.9999H48.0006V37.1332C48.934 36.9999 49.8451 36.7999 50.734 36.5333C51.6229 36.2666 52.4895 35.9333 53.334 35.5333V55.9999C53.334 56.7555 53.0784 57.3888 52.5673 57.8999C52.0562 58.411 51.4229 58.6666 50.6673 58.6666H48.0006C47.2451 58.6666 46.6118 58.411 46.1006 57.8999C45.5895 57.3888 45.334 56.7555 45.334 55.9999V53.3332H13.334V55.9999C13.334 56.7555 13.0784 57.3888 12.5673 57.8999C12.0562 58.411 11.4229 58.6666 10.6673 58.6666H8.00065C7.2451 58.6666 6.61176 58.411 6.10065 57.8999C5.58954 57.3888 5.33398 56.7555 5.33398 55.9999V34.6666ZM41.334 45.3332C42.4451 45.3332 43.3895 44.9444 44.1673 44.1666C44.9451 43.3888 45.334 42.4444 45.334 41.3332C45.334 40.2221 44.9451 39.2777 44.1673 38.4999C43.3895 37.7221 42.4451 37.3333 41.334 37.3333C40.2229 37.3333 39.2784 37.7221 38.5006 38.4999C37.7229 39.2777 37.334 40.2221 37.334 41.3332C37.334 42.4444 37.7229 43.3888 38.5006 44.1666C39.2784 44.9444 40.2229 45.3332 41.334 45.3332ZM17.334 45.3332C18.4451 45.3332 19.3895 44.9444 20.1673 44.1666C20.9451 43.3888 21.334 42.4444 21.334 41.3332C21.334 40.2221 20.9451 39.2777 20.1673 38.4999C19.3895 37.7221 18.4451 37.3333 17.334 37.3333C16.2229 37.3333 15.2784 37.7221 14.5007 38.4999C13.7229 39.2777 13.334 40.2221 13.334 41.3332C13.334 42.4444 13.7229 43.3888 14.5007 44.1666C15.2784 44.9444 16.2229 45.3332 17.334 45.3332ZM45.334 31.9999C41.6451 31.9999 38.5006 30.6999 35.9007 28.0999C33.3006 25.4999 32.0006 22.3555 32.0006 18.6666C32.0006 15.0221 33.2895 11.8888 35.8673 9.26659C38.4451 6.64436 41.6006 5.33325 45.334 5.33325C49.0229 5.33325 52.1673 6.63325 54.7673 9.23325C57.3673 11.8333 58.6673 14.9777 58.6673 18.6666C58.6673 22.3555 57.3673 25.4999 54.7673 28.0999C52.1673 30.6999 49.0229 31.9999 45.334 31.9999ZM44.0006 21.3333H46.6673V10.6666H44.0006V21.3333ZM45.334 26.6666C45.6895 26.6666 46.0006 26.5333 46.2673 26.2666C46.534 25.9999 46.6673 25.6888 46.6673 25.3333C46.6673 24.9777 46.534 24.6666 46.2673 24.3999C46.0006 24.1333 45.6895 23.9999 45.334 23.9999C44.9784 23.9999 44.6673 24.1333 44.4007 24.3999C44.134 24.6666 44.0006 24.9777 44.0006 25.3333C44.0006 25.6888 44.134 25.9999 44.4007 26.2666C44.6673 26.5333 44.9784 26.6666 45.334 26.6666Z" fill="#2EB6FF"/>
</svg>
