<svg width="64" height="64" viewBox="0 0 64 64" fill="none" xmlns="http://www.w3.org/2000/svg">
<path d="M13.3333 56C11.8667 56 10.6111 55.4778 9.56667 54.4333C8.52222 53.3889 8 52.1333 8 50.6667V13.3333C8 11.8667 8.52222 10.6111 9.56667 9.56667C10.6111 8.52222 11.8667 8 13.3333 8H37.3333V13.3333H13.3333V50.6667H50.6667V26.6667H56V50.6667C56 52.1333 55.4778 53.3889 54.4333 54.4333C53.3889 55.4778 52.1333 56 50.6667 56H13.3333ZM18.6667 45.3333H24V26.6667H18.6667V45.3333ZM29.3333 45.3333H34.6667V18.6667H29.3333V45.3333ZM40 45.3333H45.3333V34.6667H40V45.3333ZM45.3333 24V18.6667H40V13.3333H45.3333V8H50.6667V13.3333H56V18.6667H50.6667V24H45.3333Z" fill="#2EB6FF"/>
</svg>
