<svg width="64" height="64" viewBox="0 0 64 64" fill="none" xmlns="http://www.w3.org/2000/svg">
<path d="M20.7994 48C18.5327 48 16.366 47.6 14.2993 46.8C12.2327 46 10.3771 44.8222 8.73268 43.2667C6.59935 41.2667 5.0549 38.9 4.09935 36.1667C3.14379 33.4333 2.66602 30.6 2.66602 27.6667C2.66602 24.2 3.51046 21.3889 5.19935 19.2333C6.88824 17.0778 9.3549 16 12.5993 16C13.2216 16 13.8105 16.0556 14.366 16.1667C14.9216 16.2778 15.4882 16.4444 16.066 16.6667L31.9993 22.6L47.9327 16.6667C48.5105 16.4444 49.0771 16.2778 49.6327 16.1667C50.1882 16.0556 50.7771 16 51.3994 16C54.6438 16 57.1105 17.0778 58.7994 19.2333C60.4882 21.3889 61.3327 24.2 61.3327 27.6667C61.3327 30.6 60.8549 33.4333 59.8994 36.1667C58.9438 38.9 57.3994 41.2667 55.266 43.2667C53.6216 44.8222 51.766 46 49.6994 46.8C47.6327 47.6 45.466 48 43.1994 48C40.266 48 37.7771 47.3333 35.7327 46L32.666 44H31.3327L28.266 46C26.2216 47.3333 23.7327 48 20.7994 48ZM20.7994 42.6667C22.4438 42.6667 23.9771 42.2778 25.3993 41.5C26.8216 40.7222 28.1327 39.7778 29.3327 38.6667H34.666C35.866 39.7778 37.1771 40.7222 38.5993 41.5C40.0216 42.2778 41.5549 42.6667 43.1994 42.6667C44.7994 42.6667 46.3438 42.3889 47.8327 41.8333C49.3216 41.2778 50.6438 40.4222 51.7994 39.2667C53.3105 37.7556 54.3882 35.9778 55.0327 33.9333C55.6771 31.8889 55.9994 29.8 55.9994 27.6667C55.9994 25.8444 55.6216 24.3222 54.866 23.1C54.1105 21.8778 52.9105 21.2889 51.266 21.3333C51.1327 21.3333 50.6438 21.4222 49.7994 21.6L31.9993 28.2667L14.1993 21.6C13.9771 21.5111 13.7438 21.4444 13.4993 21.4C13.2549 21.3556 12.9993 21.3333 12.7327 21.3333C11.0882 21.3333 9.88824 21.9333 9.13268 23.1333C8.37713 24.3333 7.99935 25.8444 7.99935 27.6667C7.99935 29.8444 8.32157 31.9556 8.96602 34C9.61046 36.0444 10.7105 37.8222 12.266 39.3333C13.4216 40.4444 14.7327 41.2778 16.1993 41.8333C17.666 42.3889 19.1994 42.6667 20.7994 42.6667ZM24.066 38.6667C25.7105 38.6667 26.9993 38.3 27.9327 37.5667C28.866 36.8333 29.3327 35.8222 29.3327 34.5333C29.3327 32.3556 27.8994 30.2778 25.0327 28.3C22.166 26.3222 19.1327 25.3333 15.9327 25.3333C14.2882 25.3333 12.9993 25.7 12.066 26.4333C11.1327 27.1667 10.666 28.1778 10.666 29.4667C10.666 31.6444 12.0993 33.7222 14.966 35.7C17.8327 37.6778 20.866 38.6667 24.066 38.6667ZM23.666 34.6667C21.9771 34.6667 20.1438 34.1111 18.166 33C16.1882 31.8889 15.0216 30.7556 14.666 29.6C14.8882 29.5111 15.1438 29.4333 15.4327 29.3667C15.7216 29.3 16.0216 29.2667 16.3327 29.2667C18.0216 29.2667 19.8549 29.8333 21.8327 30.9667C23.8105 32.1 24.9771 33.2444 25.3327 34.4C25.1105 34.4889 24.8549 34.5556 24.566 34.6C24.2771 34.6444 23.9771 34.6667 23.666 34.6667ZM39.9327 38.7333C43.1327 38.7333 46.166 37.7333 49.0327 35.7333C51.8994 33.7333 53.3327 31.6444 53.3327 29.4667C53.3327 28.1778 52.8771 27.1556 51.966 26.4C51.0549 25.6444 49.7549 25.2667 48.066 25.2667C44.866 25.2667 41.8327 26.2667 38.966 28.2667C36.0993 30.2667 34.666 32.3556 34.666 34.5333C34.666 35.8222 35.1327 36.8444 36.066 37.6C36.9994 38.3556 38.2882 38.7333 39.9327 38.7333ZM40.3327 34.6667C40.0216 34.6667 39.7327 34.6444 39.466 34.6C39.1994 34.5556 38.9549 34.4889 38.7327 34.4C39.0882 33.2444 40.2549 32.1111 42.2327 31C44.2105 29.8889 46.0438 29.3333 47.7327 29.3333C48.0438 29.3333 48.3327 29.3556 48.5993 29.4C48.866 29.4444 49.1105 29.5111 49.3327 29.6C48.9771 30.7556 47.8105 31.8889 45.8327 33C43.8549 34.1111 42.0216 34.6667 40.3327 34.6667Z" fill="#2EB6FF"/>
</svg>
