<svg width="64" height="64" viewBox="0 0 64 64" fill="none" xmlns="http://www.w3.org/2000/svg">
<path d="M21.3333 17.0667L13.3333 9.06667L17.0667 5.33333L25.0667 13.3333L21.3333 17.0667ZM42.6667 17.0667L38.9333 13.3333L46.9333 5.33333L50.6667 9.06667L42.6667 17.0667ZM29.3333 13.3333V0H34.6667V13.3333H29.3333ZM10.6667 64C9.91111 64 9.27778 63.7444 8.76667 63.2333C8.25556 62.7222 8 62.0889 8 61.3333V40L13.6 24C13.8667 23.2 14.3444 22.5556 15.0333 22.0667C15.7222 21.5778 16.4889 21.3333 17.3333 21.3333H46.6667C47.5111 21.3333 48.2778 21.5778 48.9667 22.0667C49.6556 22.5556 50.1333 23.2 50.4 24L56 40V61.3333C56 62.0889 55.7444 62.7222 55.2333 63.2333C54.7222 63.7444 54.0889 64 53.3333 64H50.6667C49.9111 64 49.2778 63.7444 48.7667 63.2333C48.2556 62.7222 48 62.0889 48 61.3333V58.6667H16V61.3333C16 62.0889 15.7444 62.7222 15.2333 63.2333C14.7222 63.7444 14.0889 64 13.3333 64H10.6667ZM15.4667 34.6667H48.5333L45.7333 26.6667H18.2667L15.4667 34.6667ZM20 50.6667C21.1111 50.6667 22.0556 50.2778 22.8333 49.5C23.6111 48.7222 24 47.7778 24 46.6667C24 45.5556 23.6111 44.6111 22.8333 43.8333C22.0556 43.0556 21.1111 42.6667 20 42.6667C18.8889 42.6667 17.9444 43.0556 17.1667 43.8333C16.3889 44.6111 16 45.5556 16 46.6667C16 47.7778 16.3889 48.7222 17.1667 49.5C17.9444 50.2778 18.8889 50.6667 20 50.6667ZM44 50.6667C45.1111 50.6667 46.0556 50.2778 46.8333 49.5C47.6111 48.7222 48 47.7778 48 46.6667C48 45.5556 47.6111 44.6111 46.8333 43.8333C46.0556 43.0556 45.1111 42.6667 44 42.6667C42.8889 42.6667 41.9444 43.0556 41.1667 43.8333C40.3889 44.6111 40 45.5556 40 46.6667C40 47.7778 40.3889 48.7222 41.1667 49.5C41.9444 50.2778 42.8889 50.6667 44 50.6667ZM13.3333 53.3333H50.6667V40H13.3333V53.3333Z" fill="#2EB6FF"/>
</svg>
