<svg width="64" height="64" viewBox="0 0 64 64" fill="none" xmlns="http://www.w3.org/2000/svg">
<path d="M21.3333 61.3333L17.0667 58.1333L24 48.8667V34.6667C24 33.2889 24.1111 31.7889 24.3333 30.1667C24.5556 28.5444 24.8889 27.0444 25.3333 25.6667L21.3333 27.8667V37.3333H16V24.8L27.7333 18.1333C28.8444 17.5111 29.8111 17.0333 30.6333 16.7C31.4556 16.3667 32.2222 16.2 32.9333 16.2C34.0444 16.2 35.0556 16.6778 35.9667 17.6333C36.8778 18.5889 37.9333 20.0889 39.1333 22.1333C40.5556 24.5333 41.8444 26.3333 43 27.5333C44.1556 28.7333 45.4 29.6444 46.7333 30.2667C47.2222 29.9111 47.6444 29.6667 48 29.5333C48.3556 29.4 48.7778 29.3333 49.2667 29.3333C50.3778 29.3333 51.3333 29.7333 52.1333 30.5333C52.9333 31.3333 53.3333 32.2667 53.3333 33.3333V61.3333H50.6667V33.3333C50.6667 32.9778 50.5333 32.6667 50.2667 32.4C50 32.1333 49.6889 32 49.3333 32C48.9778 32 48.6667 32.1333 48.4 32.4C48.1333 32.6667 48 32.9778 48 33.3333V36.6667H45.3333V35.4C42.9333 34.3778 41.0667 33.2333 39.7333 31.9667C38.4 30.7 37.2222 29 36.2 26.8667C35.7111 28.1111 35.3222 29.6333 35.0333 31.4333C34.7444 33.2333 34.6444 34.9333 34.7333 36.5333L40 44V61.3333H34.6667V48L29.9333 41.2L29.3333 50.6667L21.3333 61.3333ZM36 14.6667C34.5333 14.6667 33.2778 14.1444 32.2333 13.1C31.1889 12.0556 30.6667 10.8 30.6667 9.33333C30.6667 7.86667 31.1889 6.61111 32.2333 5.56667C33.2778 4.52222 34.5333 4 36 4C37.4667 4 38.7222 4.52222 39.7667 5.56667C40.8111 6.61111 41.3333 7.86667 41.3333 9.33333C41.3333 10.8 40.8111 12.0556 39.7667 13.1C38.7222 14.1444 37.4667 14.6667 36 14.6667Z" fill="#2EB6FF"/>
</svg>
