<svg width="64" height="64" viewBox="0 0 64 64" fill="none" xmlns="http://www.w3.org/2000/svg">
<path d="M47.9987 15.9999C46.532 15.9999 45.2765 15.4777 44.232 14.4333C43.1876 13.3888 42.6654 12.1333 42.6654 10.6666C42.6654 9.19992 43.1876 7.94436 44.232 6.89992C45.2765 5.85547 46.532 5.33325 47.9987 5.33325C49.4654 5.33325 50.7209 5.85547 51.7654 6.89992C52.8098 7.94436 53.332 9.19992 53.332 10.6666C53.332 12.1333 52.8098 13.3888 51.7654 14.4333C50.7209 15.4777 49.4654 15.9999 47.9987 15.9999ZM45.332 58.6666V37.3333C45.332 35.5555 44.8765 33.9555 43.9654 32.5333C43.0543 31.111 41.8876 29.9999 40.4654 29.1999L42.7987 22.3333C43.1543 21.2221 43.8098 20.3333 44.7654 19.6666C45.7209 18.9999 46.7987 18.6666 47.9987 18.6666C49.1987 18.6666 50.2765 18.9999 51.232 19.6666C52.1876 20.3333 52.8431 21.2221 53.1987 22.3333L59.9987 42.6666H53.332V58.6666H45.332ZM33.332 30.6666C32.2209 30.6666 31.2765 30.2777 30.4987 29.4999C29.7209 28.7221 29.332 27.7777 29.332 26.6666C29.332 25.5555 29.7209 24.611 30.4987 23.8333C31.2765 23.0555 32.2209 22.6666 33.332 22.6666C34.4431 22.6666 35.3876 23.0555 36.1654 23.8333C36.9431 24.611 37.332 25.5555 37.332 26.6666C37.332 27.7777 36.9431 28.7221 36.1654 29.4999C35.3876 30.2777 34.4431 30.6666 33.332 30.6666ZM14.6654 15.9999C13.1987 15.9999 11.9431 15.4777 10.8987 14.4333C9.85425 13.3888 9.33203 12.1333 9.33203 10.6666C9.33203 9.19992 9.85425 7.94436 10.8987 6.89992C11.9431 5.85547 13.1987 5.33325 14.6654 5.33325C16.132 5.33325 17.3876 5.85547 18.432 6.89992C19.4765 7.94436 19.9987 9.19992 19.9987 10.6666C19.9987 12.1333 19.4765 13.3888 18.432 14.4333C17.3876 15.4777 16.132 15.9999 14.6654 15.9999ZM9.33203 58.6666V39.9999H5.33203V23.9999C5.33203 22.5333 5.85425 21.2777 6.8987 20.2333C7.94314 19.1888 9.1987 18.6666 10.6654 18.6666H18.6654C20.132 18.6666 21.3876 19.1888 22.432 20.2333C23.4765 21.2777 23.9987 22.5333 23.9987 23.9999V39.9999H19.9987V58.6666H9.33203ZM29.332 58.6666V47.9999H26.6654V37.3333C26.6654 36.2221 27.0543 35.2777 27.832 34.4999C28.6098 33.7221 29.5543 33.3333 30.6654 33.3333H35.9987C37.1098 33.3333 38.0543 33.7221 38.832 34.4999C39.6098 35.2777 39.9987 36.2221 39.9987 37.3333V47.9999H37.332V58.6666H29.332Z" fill="#2EB6FF"/>
</svg>
