<svg width="64" height="64" viewBox="0 0 64 64" fill="none" xmlns="http://www.w3.org/2000/svg">
<path d="M13.3333 37.3333C13.3333 39.6444 13.8 41.8333 14.7333 43.9C15.6667 45.9667 17 47.7778 18.7333 49.3333C18.6889 49.1111 18.6667 48.9111 18.6667 48.7333V48.1333C18.6667 46.7111 18.9333 45.3778 19.4667 44.1333C20 42.8889 20.7778 41.7556 21.8 40.7333L29.3333 33.3333L36.8667 40.7333C37.8889 41.7556 38.6667 42.8889 39.2 44.1333C39.7333 45.3778 40 46.7111 40 48.1333V48.7333C40 48.9111 39.9778 49.1111 39.9333 49.3333C41.6667 47.7778 43 45.9667 43.9333 43.9C44.8667 41.8333 45.3333 39.6444 45.3333 37.3333C45.3333 35.1111 44.9222 33.0111 44.1 31.0333C43.2778 29.0556 42.0889 27.2889 40.5333 25.7333C39.6444 26.3111 38.7111 26.7444 37.7333 27.0333C36.7556 27.3222 35.7556 27.4667 34.7333 27.4667C31.9778 27.4667 29.5889 26.5556 27.5667 24.7333C25.5444 22.9111 24.3778 20.6667 24.0667 18C22.3333 19.4667 20.8 20.9889 19.4667 22.5667C18.1333 24.1444 17.0111 25.7444 16.1 27.3667C15.1889 28.9889 14.5 30.6444 14.0333 32.3333C13.5667 34.0222 13.3333 35.6889 13.3333 37.3333ZM29.3333 40.8L25.5333 44.5333C25.0444 45.0222 24.6667 45.5778 24.4 46.2C24.1333 46.8222 24 47.4667 24 48.1333C24 49.5556 24.5222 50.7778 25.5667 51.8C26.6111 52.8222 27.8667 53.3333 29.3333 53.3333C30.8 53.3333 32.0556 52.8222 33.1 51.8C34.1444 50.7778 34.6667 49.5556 34.6667 48.1333C34.6667 47.4222 34.5333 46.7667 34.2667 46.1667C34 45.5667 33.6222 45.0222 33.1333 44.5333L29.3333 40.8ZM29.3333 8V16.8C29.3333 18.3111 29.8556 19.5778 30.9 20.6C31.9444 21.6222 33.2222 22.1333 34.7333 22.1333C35.5333 22.1333 36.2778 21.9667 36.9667 21.6333C37.6556 21.3 38.2667 20.8 38.8 20.1333L40 18.6667C43.2889 20.5333 45.8889 23.1333 47.8 26.4667C49.7111 29.8 50.6667 33.4222 50.6667 37.3333C50.6667 43.2889 48.6 48.3333 44.4667 52.4667C40.3333 56.6 35.2889 58.6667 29.3333 58.6667C23.3778 58.6667 18.3333 56.6 14.2 52.4667C10.0667 48.3333 8 43.2889 8 37.3333C8 31.6 9.92222 26.1556 13.7667 21C17.6111 15.8444 22.8 11.5111 29.3333 8ZM56 29.3333C55.2444 29.3333 54.6111 29.0778 54.1 28.5667C53.5889 28.0556 53.3333 27.4222 53.3333 26.6667C53.3333 25.9111 53.5889 25.2778 54.1 24.7667C54.6111 24.2556 55.2444 24 56 24C56.7556 24 57.3889 24.2556 57.9 24.7667C58.4111 25.2778 58.6667 25.9111 58.6667 26.6667C58.6667 27.4222 58.4111 28.0556 57.9 28.5667C57.3889 29.0778 56.7556 29.3333 56 29.3333ZM53.3333 21.3333V8H58.6667V21.3333H53.3333Z" fill="#2EB6FF"/>
</svg>
