<svg width="800" height="800" viewBox="0 0 800 800" fill="none" xmlns="http://www.w3.org/2000/svg">
<path d="M400 25C192.89 25 25 192.89 25 400C25 607.11 192.89 775 400 775C464.57 775 525.34 758.67 578.39 729.93V760.02H775V383.7H774.63C766.09 184.16 601.64 25 400 25ZM578.39 383.7V431.37C578.39 529.89 498.53 609.74 399.99 609.74C350.73 609.74 306.15 589.76 273.86 557.5C241.57 525.23 221.62 480.63 221.62 431.37V286.84C368.78 286.84 399.99 190.26 399.99 190.26C399.99 190.26 431.23 286.84 578.39 286.84V383.7Z" fill="url(#paint0_linear_595_148)"/>
<path d="M359.65 351.14C343.33 351.14 327 357.38 314.55 369.83C291.24 393.14 289.74 429.99 310.06 455.03C311.45 456.74 312.93 458.39 314.53 459.99L400.01 545.45L485.45 460C487.05 458.4 488.55 456.75 489.94 455.02C510.26 429.98 508.76 393.13 485.45 369.82C473 357.37 456.68 351.13 440.35 351.13C426.02 351.13 411.7 355.94 400 365.54C388.31 355.95 373.98 351.14 359.65 351.14Z" fill="url(#paint1_linear_595_148)"/>
<defs>
<linearGradient id="paint0_linear_595_148" x1="-148.565" y1="400" x2="906.7" y2="400" gradientUnits="userSpaceOnUse">
<stop stop-color="#20D6DE"/>
<stop offset="1" stop-color="#C24AD2"/>
</linearGradient>
<linearGradient id="paint1_linear_595_148" x1="-148.565" y1="448.293" x2="906.699" y2="448.293" gradientUnits="userSpaceOnUse">
<stop stop-color="#20D6DE"/>
<stop offset="1" stop-color="#C24AD2"/>
</linearGradient>
</defs>
</svg>
